<svg width="70" height="42" viewBox="0 0 70 42" fill="none" xmlns="http://www.w3.org/2000/svg">
<path d="M28.3773 41L25.5739 31.9605H12.0146L9.3256 41H0.343274L14.3031 1.35191H23.7431L37.7029 41H28.3773ZM13.8454 25.7815H23.8003L18.7656 9.18999L13.8454 25.7815ZM69.7283 39.9702C66.6389 41.1526 63.1871 41.7438 59.3729 41.7438C52.927 41.7438 48.0449 40.0274 44.7266 36.5947C41.4083 33.1238 39.7491 28.051 39.7491 21.3762C39.7491 14.7777 41.4845 9.66676 44.9554 6.04332C48.4263 2.41987 53.3084 0.60815 59.6018 0.60815C62.9582 0.60815 66.143 1.14213 69.1562 2.21009V8.96114C65.6853 8.19831 62.8438 7.81689 60.6316 7.81689C56.6649 7.81689 53.6898 8.86578 51.7065 10.9636C49.7612 13.0613 48.7886 16.2652 48.7886 20.5752V21.8911C48.7886 26.163 49.7422 29.3478 51.6493 31.4456C53.5563 33.5052 56.4742 34.535 60.4027 34.535C62.6149 34.535 65.7235 34.0964 69.7283 33.2191V39.9702Z" fill="white"/>
</svg>
